<svg xmlns="http://www.w3.org/2000/svg" viewBox="0 0 100 100">
  <circle cx="50" cy="50" r="50" fill="#D12918"/>
  <!-- Cutting board shield shape -->
  <path d="M50 15 C50 15 30 20 30 40 L30 65 C30 75 40 82 50 85 C60 82 70 75 70 65 L70 40 C70 20 50 15 50 15Z" fill="#FCF8E6"/>
  <!-- Handle -->
  <rect x="46" y="8" width="8" height="12" rx="4" fill="#FCF8E6"/>
  <!-- Flame body -->
  <path d="M50 35 C45 40 43 47 46 52 C48 55 52 55 54 52 C57 47 55 40 50 35Z" fill="#D12918"/>
  <!-- Face smile -->
  <path d="M46 49 Q50 53 54 49" stroke="#FCF8E6" stroke-width="1.5" fill="none" stroke-linecap="round"/>
  <!-- Eyes -->
  <circle cx="47" cy="46" r="1.2" fill="#FCF8E6"/>
  <circle cx="53" cy="46" r="1.2" fill="#FCF8E6"/>
</svg>
